This 2004 movie follows a Chinese socialite (Michelle Yeoh) who, in her spare time, fights the forces of evil. She teams up with her childhood buddy, Mr. Rich Man, who is a police officer, to foil a kidnapping ring with more sinister undertones... world domination.



General
Format                                   : AVI
Format/Info                              : Audio Video Interleave
File size                                : 1.34 GiB
Duration                                 : 1h 39mn
Overall bit rate                         : 1 934 Kbps
Movie name                               : SILVER_HAWK.Title4.DVDRip
Writing application                      : Lavf52.33.0
Original source form/Name                : SILVER_HAWK

Video
Format                                   : AVC
Format/Info                              : Advanced Video Codec
Format profile                           : Baseline@L1.3
Format settings, CABAC                   : No
Format settings, ReFrames                : 1 frame
Codec ID                                 : H264
Duration                                 : 1h 39mn
Bit rate                                 : 1 792 Kbps
Width                                    : 800 pixels
Height                                   : 338 pixels
Display aspect ratio                     : 2.35:1
Frame rate                               : 29.970 fps
Color space                              : YUV
Chroma subsampling                       : 4:2:0
Bit depth                                : 8 bits
Scan type                                : Progressive
Bits/(Pixel*Frame)                       : 0.221
Stream size                              : 1.24 GiB (93%)
Writing library                          : x264 core 67

Audio
Format                                   : MPEG Audio
Format version                           : Version 1
Format profile                           : Layer 3
Mode                                     : Joint stereo
Mode extension                           : MS Stereo
Codec ID                                 : 55
Codec ID/Hint                            : MP3
Duration                                 : 1h 39mn
Bit rate mode                            : Constant
Bit rate                                 : 128 Kbps
Channel(s)                               : 2 channels
Sampling rate                            : 48.0 KHz
Compression mode                         : Lossy
Stream size                              : 90.8 MiB (7%)
Alignment                                : Aligned on interleaves
Interleave, duration                     : 24 ms (0.72 video frame)

